<svg width="1440" height="1024" viewBox="0 0 1440 1024" fill="none" xmlns="http://www.w3.org/2000/svg">
<g clip-path="url(#clip0_35_30)">
<rect width="1440" height="1024" fill="#FAFAFA"/>
<path d="M367.846 579.486C450.002 641.395 541.377 600.235 597.882 572.942C600.384 571.734 602.81 570.555 605.161 569.413C616.525 563.894 626.155 559.218 634.199 556.056C639.023 554.16 642.782 553.014 645.624 552.531C647.201 552.263 648.175 552.256 648.712 552.294C648.716 552.31 648.721 552.326 648.725 552.343C649.104 553.754 649.356 556.694 648.624 562.007C647.183 572.462 642.463 588.69 633.399 612.793C592.364 686.636 534.628 711.717 472.922 726.109C457.344 729.742 441.567 732.679 425.672 735.555C423.768 735.9 421.862 736.244 419.953 736.588C406.005 739.104 391.966 741.636 378.19 744.581C346.869 751.276 316.02 760.274 288.343 776.932C195.669 832.711 129.204 852.991 83.0847 851.941C60.2211 851.421 42.5412 845.669 28.9652 836.573C15.3773 827.47 5.32422 814.631 -1.66101 799.04C-15.7643 767.56 -17.0646 725.416 -9.42103 683.811C-1.79384 642.294 14.4418 602.957 33.6114 577.518C72.8752 525.413 118.917 498.596 172.828 497.683C227.344 496.759 291.908 522.263 367.846 579.486Z" fill="#F37216" stroke="white" stroke-width="20"/>
<path d="M504.305 457.005L504.152 457H504C461.665 457 428.582 445.712 397.337 430.662C384.594 424.525 372.287 417.83 359.663 410.962C356.667 409.332 353.654 407.693 350.612 406.049C334.871 397.54 318.551 389.006 300.936 381.648C265.481 366.837 224.974 356.871 172.328 360.413C119.882 363.942 55.9014 380.84 -26.6871 418.919C-33.5188 422.069 -38.181 423.425 -41.0741 423.769C-41.0619 423.682 -41.0487 423.592 -41.0342 423.499C-40.5946 420.675 -39.2352 416.492 -36.5837 410.905C-25.9161 388.426 1.1584 352.359 38.1045 313.908C74.8626 275.652 120.624 235.836 167.959 205.659C215.539 175.326 263.519 155.5 305 155.5C374.761 155.5 420.924 180.868 474.684 210.41C486.828 217.083 499.358 223.969 512.636 230.823C584.359 267.85 673.971 301.131 833.862 287.134C858.382 294.948 870.948 309.171 873.68 324.223C876.517 339.853 869.511 360.397 846.169 381.449C799.416 423.617 691.873 462.726 504.305 457.005ZM-43.1371 423.804C-43.135 423.802 -43.1004 423.807 -43.0397 423.827C-43.1089 423.816 -43.1392 423.806 -43.1371 423.804ZM-41.1584 425.766C-41.1505 425.794 -41.1478 425.809 -41.1485 425.809C-41.1491 425.81 -41.1531 425.796 -41.1584 425.766Z" fill="#0F9E92" stroke="white" stroke-width="20"/>
<path d="M1473 133.5C1473 137.24 1471.28 142.878 1466.46 150.62C1461.74 158.198 1454.6 166.907 1445.16 176.564C1426.31 195.861 1399.22 218.001 1366.71 241.301C1301.75 287.855 1216.28 338.236 1134.8 378.776C1052.98 419.478 976.403 449.637 928.885 456.646C917.082 458.387 907.695 458.596 900.763 457.48C893.774 456.356 890.544 454.115 889.084 452.13C887.727 450.285 886.468 446.699 887.991 439.408C889.529 432.047 893.7 422.108 901.547 409.192C923.09 373.727 936.184 344.865 941.605 321.218C947.063 297.406 944.938 277.866 934.646 262.443C924.544 247.304 907.788 238.007 888.098 231.795C868.339 225.562 844.251 222.014 817.822 219.35C801.302 217.686 783.832 216.354 765.66 214.97C724.91 211.865 680.635 208.491 635.653 200.486C572.685 189.279 510.029 169.191 457.447 128.964C458.802 122.323 463.331 116.274 472.25 110.617C483.466 103.503 500.534 97.831 522.985 93.6685C567.732 85.3725 630.186 83.6903 700.124 85.2683C766.577 86.7678 839.105 91.1854 908.579 95.4171C912.062 95.6293 915.538 95.841 919.005 96.0518C991.468 100.459 1060.2 104.5 1114 104.5C1167.92 104.5 1218.08 100.446 1262.81 96.0217C1275.03 94.8132 1286.8 93.5824 1298.12 92.3992C1328.45 89.2275 1355.51 86.3981 1379.13 85.2593C1411.87 83.6808 1435.68 85.5445 1451.11 92.8694C1458.5 96.3763 1463.73 101.04 1467.24 107.149C1470.8 113.362 1473 121.811 1473 133.5Z" fill="#E72354" stroke="white" stroke-width="20"/>
</g>
<defs>
<clipPath id="clip0_35_30">
<rect width="1440" height="1024" fill="white"/>
</clipPath>
</defs>
</svg>
