<svg width="1122" height="182" viewBox="0 0 1122 182" fill="none" xmlns="http://www.w3.org/2000/svg">
<path d="M0.0640011 180V0.799988H33.344V151.84H127.04V180H0.0640011ZM206.848 181.792C195.243 181.792 185.003 179.659 176.128 175.392C167.253 170.955 160.341 164.299 155.392 155.424C150.443 146.379 147.968 135.029 147.968 121.376V43.296H179.968V117.024C179.968 129.312 182.699 138.528 188.16 144.672C193.792 150.645 201.728 153.632 211.968 153.632C219.477 153.632 225.963 152.096 231.424 149.024C237.056 145.952 241.408 141.344 244.48 135.2C247.723 129.056 249.344 121.461 249.344 112.416V43.296H281.344V180H250.88V143.136L256.256 154.4C251.648 163.275 244.907 170.101 236.032 174.88C227.157 179.488 217.429 181.792 206.848 181.792ZM495.786 41.76C506.709 41.76 516.351 43.8933 524.714 48.16C533.247 52.4267 539.903 58.9973 544.682 67.872C549.461 76.576 551.85 87.84 551.85 101.664V180H519.85V105.76C519.85 93.6427 517.205 84.5973 511.914 78.624C506.623 72.6507 499.029 69.664 489.13 69.664C482.133 69.664 475.903 71.2 470.442 74.272C465.151 77.344 460.97 81.8667 457.898 87.84C454.997 93.8133 453.546 101.408 453.546 110.624V180H421.546V105.76C421.546 93.6427 418.901 84.5973 413.61 78.624C408.319 72.6507 400.725 69.664 390.826 69.664C383.829 69.664 377.599 71.2 372.138 74.272C366.847 77.344 362.666 81.8667 359.594 87.84C356.693 93.8133 355.242 101.408 355.242 110.624V180H323.242V43.296H353.706V79.648L348.33 68.896C352.938 60.0213 359.594 53.28 368.298 48.672C377.173 44.064 387.242 41.76 398.506 41.76C411.306 41.76 422.399 44.9173 431.786 51.232C441.343 57.5467 447.658 67.104 450.73 79.904L438.186 75.552C442.623 65.312 449.962 57.12 460.202 50.976C470.442 44.832 482.303 41.76 495.786 41.76ZM657.248 181.792C642.059 181.792 628.747 178.805 617.312 172.832C606.048 166.688 597.259 158.325 590.944 147.744C584.8 137.163 581.728 125.131 581.728 111.648C581.728 97.9947 584.715 85.9627 590.688 75.552C596.832 64.9707 605.195 56.6933 615.776 50.72C626.528 44.7467 638.731 41.76 652.384 41.76C665.696 41.76 677.557 44.6613 687.968 50.464C698.379 56.2667 706.571 64.4587 712.544 75.04C718.517 85.6213 721.504 98.08 721.504 112.416C721.504 113.781 721.419 115.317 721.248 117.024C721.248 118.731 721.163 120.352 720.992 121.888H607.072V100.64H704.096L691.552 107.296C691.723 99.4453 690.101 92.5333 686.688 86.56C683.275 80.5867 678.581 75.8933 672.608 72.48C666.805 69.0667 660.064 67.36 652.384 67.36C644.533 67.36 637.621 69.0667 631.648 72.48C625.845 75.8933 621.237 80.672 617.824 86.816C614.581 92.7893 612.96 99.872 612.96 108.064V113.184C612.96 121.376 614.837 128.629 618.592 134.944C622.347 141.259 627.637 146.123 634.464 149.536C641.291 152.949 649.141 154.656 658.016 154.656C665.696 154.656 672.608 153.461 678.752 151.072C684.896 148.683 690.357 144.928 695.136 139.808L712.288 159.52C706.144 166.688 698.379 172.235 688.992 176.16C679.776 179.915 669.195 181.792 657.248 181.792ZM729.804 180L789.964 101.664L789.452 118.816L732.108 43.296H767.692L807.884 97.056H794.316L834.764 43.296H869.324L811.468 118.816L811.724 101.664L871.628 180H835.532L793.292 122.912L806.604 124.704L765.132 180H729.804ZM975.626 181.28C953.439 181.28 935.946 174.795 923.146 161.824C910.346 148.853 903.946 129.568 903.946 103.968V0.799988H917.002V103.456C917.002 125.813 922.122 142.368 932.362 153.12C942.602 163.872 957.109 169.248 975.882 169.248C994.485 169.248 1008.91 163.872 1019.15 153.12C1029.39 142.368 1034.51 125.813 1034.51 103.456V0.799988H1047.56V103.968C1047.56 129.568 1041.16 148.853 1028.36 161.824C1015.56 174.795 997.983 181.28 975.626 181.28ZM1108.48 180V0.799988H1121.54V180H1108.48Z" fill="#202020"/>
</svg>
